<svg width="29" height="39" viewBox="0 0 29 39" fill="none" xmlns="http://www.w3.org/2000/svg">
<path d="M14.6271 8.54688C11.8786 8.54688 9.64148 10.784 9.64148 13.5325C9.64148 16.2811 11.8786 18.5182 14.6271 18.5182C17.3757 18.5182 19.6128 16.2811 19.6128 13.5325C19.6128 10.784 17.3757 8.54688 14.6271 8.54688ZM14.6271 17.0937C12.6635 17.0937 11.066 15.4962 11.066 13.5325C11.066 11.5689 12.6635 9.97135 14.6271 9.97135C16.5908 9.97135 18.1883 11.5689 18.1883 13.5325C18.1883 15.4962 16.5908 17.0937 14.6271 17.0937Z" fill="#CFA55B"/>
<path d="M24.159 4.00064C21.5793 1.42091 18.1491 0 14.5011 0C10.8523 0 7.42285 1.42091 4.84312 4.00064C0.0689918 8.77406 -0.524302 17.7554 3.55824 23.1969L14.5011 39L25.4275 23.2189C29.5264 17.7554 28.9331 8.77406 24.159 4.00064ZM24.2723 22.3863L14.5011 36.4972L4.71421 22.3643C1.01128 17.427 1.5419 9.31607 5.85094 5.00774C8.16144 2.69724 11.2333 1.42448 14.5011 1.42448C17.7688 1.42448 20.8407 2.69724 23.1519 5.00774C27.4609 9.31607 27.9916 17.427 24.2723 22.3863Z" fill="#CFA55B"/>
</svg>
