<svg width="37" height="19" viewBox="0 0 37 19" fill="none" xmlns="http://www.w3.org/2000/svg">
<path d="M35.8438 2.5625H1.15631C0.51804 2.5625 9.53674e-05 2.04446 9.53674e-05 1.40628C9.53674e-05 0.768006 0.518135 0.250061 1.15631 0.250061H35.8438C36.4821 0.250061 37 0.768102 37 1.40628C37 2.04446 36.482 2.5625 35.8438 2.5625Z" fill="white"/>
<path d="M1.15631 8.34378H35.8438C36.4821 8.34378 37 8.86182 37 9.49999C37 10.1382 36.482 10.6562 35.8438 10.6562H1.15631C0.51804 10.6562 9.53674e-05 10.1382 9.53674e-05 9.49999C9.53674e-05 8.86182 0.51804 8.34378 1.15631 8.34378Z" fill="white"/>
<path d="M1.1563 16.4375H24.2813C24.9196 16.4375 25.4375 16.9556 25.4375 17.5938C25.4375 18.232 24.9195 18.75 24.2813 18.75H1.1563C0.518028 18.75 8.39233e-05 18.2319 8.39233e-05 17.5938C-1.33514e-05 16.9555 0.518028 16.4375 1.1563 16.4375Z" fill="white"/>
</svg>
