<?xml version="1.0" standalone="no"?>
<!DOCTYPE svg PUBLIC "-//W3C//DTD SVG 20010904//EN"
 "http://www.w3.org/TR/2001/REC-SVG-20010904/DTD/svg10.dtd">
<svg version="1.0" xmlns="http://www.w3.org/2000/svg"
 width="700.000000pt" height="700.000000pt" viewBox="0 0 700.000000 700.000000"
 preserveAspectRatio="xMidYMid meet">
<metadata>
Created by potrace 1.14, written by Peter Selinger 2001-2017
</metadata>
<g transform="translate(0.000000,700.000000) scale(0.100000,-0.100000)"
fill="#000000" stroke="none">
<path d="M3278 6995 c-1 -1 -41 -6 -88 -9 -47 -4 -94 -9 -105 -11 -11 -2 -42
-7 -70 -10 -27 -3 -72 -10 -100 -15 -27 -5 -63 -12 -80 -15 -16 -3 -43 -8 -60
-11 -133 -23 -469 -129 -651 -207 -119 -50 -354 -174 -469 -246 -98 -61 -304
-205 -342 -239 -10 -9 -48 -41 -83 -71 -105 -87 -358 -347 -453 -466 -266
-332 -468 -702 -598 -1095 -42 -129 -78 -257 -93 -330 -3 -14 -7 -36 -10 -50
-5 -23 -21 -108 -31 -169 -2 -13 -7 -45 -11 -70 -3 -25 -8 -57 -10 -71 -12
-79 -19 -221 -19 -420 1 -261 3 -286 50 -610 19 -132 142 -563 189 -665 8 -16
26 -59 41 -95 35 -83 147 -307 180 -360 14 -22 25 -44 25 -50 0 -5 5 -10 10
-10 6 0 10 -5 10 -11 0 -17 173 -267 266 -384 114 -142 388 -417 529 -528 505
-402 1135 -674 1720 -743 22 -2 49 -6 60 -9 122 -27 660 -26 845 1 617 92
1102 279 1575 609 208 145 474 384 623 559 37 43 72 84 78 90 5 6 40 50 77 98
379 498 613 1077 693 1713 25 196 24 741 -1 818 -2 6 -6 35 -9 62 -5 43 -32
199 -50 286 -53 252 -171 574 -306 837 -177 341 -375 610 -654 887 -460 457
-1036 776 -1667 924 -46 11 -97 22 -114 25 -16 3 -70 12 -120 20 -49 8 -115
18 -145 21 -30 4 -68 9 -85 11 -35 5 -541 14 -547 9z m-449 -732 c-61 -41
-146 -111 -199 -164 -80 -81 -190 -224 -190 -248 0 -5 -3 -11 -7 -13 -24 -10
-113 -218 -139 -322 -43 -171 -42 -141 -43 -1728 -1 -835 1 -1518 3 -1518 4 0
263 165 416 265 36 23 180 115 320 205 140 90 308 197 372 239 65 42 161 103
214 136 52 33 102 66 109 73 8 6 16 12 19 12 3 0 58 34 123 76 65 42 145 94
177 115 33 21 62 36 65 34 8 -4 5 -1544 -3 -1608 -13 -117 -62 -312 -86 -342
-4 -5 -11 -21 -15 -34 -4 -14 -30 -63 -57 -109 -168 -283 -442 -480 -763 -548
-131 -28 -358 -25 -480 7 -147 38 -457 175 -601 265 -318 198 -523 371 -738
624 -212 249 -349 478 -491 825 -24 58 -84 251 -100 320 -9 39 -19 79 -21 90
-5 22 -30 159 -38 215 -22 136 -28 454 -13 620 38 418 181 850 404 1213 56 91
223 320 283 387 330 368 765 675 1190 840 47 18 94 36 105 41 44 17 201 65
219 66 11 1 -4 -14 -35 -34z m1463 -48 c173 -31 467 -157 687 -293 100 -63
300 -209 366 -268 120 -108 262 -253 325 -333 19 -24 42 -52 51 -61 29 -31
155 -213 208 -303 54 -90 171 -318 171 -334 0 -4 7 -21 16 -38 33 -63 116
-313 131 -394 2 -14 6 -28 8 -32 9 -14 47 -218 60 -324 25 -192 24 -548 -1
-705 -44 -282 -98 -495 -164 -647 -13 -29 -23 -54 -52 -123 -36 -87 -142 -282
-211 -388 -180 -275 -362 -466 -710 -745 -284 -228 -510 -349 -883 -473 -74
-24 -140 -44 -146 -44 -6 0 22 23 61 51 40 28 110 88 155 133 183 186 294 393
362 676 17 70 18 178 21 1618 2 911 0 1542 -5 1542 -5 0 -20 -8 -33 -18 -13
-10 -138 -90 -276 -178 -139 -87 -297 -187 -350 -221 -54 -35 -107 -68 -118
-73 -11 -6 -52 -32 -92 -58 -73 -48 -364 -233 -451 -286 -26 -17 -90 -58 -142
-91 -52 -34 -157 -101 -233 -148 l-138 -87 5 797 c3 439 8 816 11 838 59 428
338 789 730 942 91 36 170 59 235 68 25 4 46 8 48 10 10 9 288 1 354 -10z"/>
</g>
</svg>
